<svg width="169" height="168" viewBox="0 0 169 168" fill="none" xmlns="http://www.w3.org/2000/svg">
<path d="M164.421 65.8852C166.464 72.9288 167.123 79.8338 165.115 86.7953C162.946 94.3126 156.222 99.6867 148.418 100.236C140.135 100.819 132.865 96.5676 129.364 89.3386C126.382 83.1804 127.197 76.8073 128.233 70.5074C129.313 63.9335 131.976 57.9845 136.657 53.0413C142.679 46.6821 151.224 46.6434 157.24 52.9796C160.703 56.6264 162.815 60.9882 164.421 65.8852Z" fill="#040404"/>
<path d="M112.039 135.69C110.663 142.893 108.115 149.345 103.166 154.636C97.8209 160.35 89.3904 162.086 82.1875 159.033C74.5423 155.792 69.9943 148.704 70.1565 140.673C70.2946 133.832 73.9143 128.524 77.6969 123.381C81.6441 118.014 86.7174 113.922 93.1323 111.642C101.385 108.71 109.016 112.554 111.5 120.931C112.93 125.752 112.832 130.598 112.039 135.69Z" fill="#040404"/>
<path d="M50.5738 141.6C47.0142 148.012 42.5778 153.344 36.2223 156.823C29.3593 160.579 20.8086 159.593 14.9211 154.442C8.67205 148.973 6.56759 140.819 9.23186 133.241C11.5015 126.786 16.5991 122.875 21.7999 119.172C27.2269 115.308 33.3251 113.007 40.131 112.847C48.8865 112.641 54.9336 118.678 54.6749 127.412C54.526 132.438 52.9184 137.01 50.5738 141.6Z" fill="#040404"/>
<path d="M42.064 36.1703C35.1793 38.6977 28.3368 39.8346 21.2526 38.3147C13.6028 36.6733 7.77486 30.3392 6.68514 22.5921C5.5285 14.3692 9.26454 6.82146 16.233 2.82696C22.1692 -0.575875 28.5836 -0.204972 34.9401 0.390685C41.5732 1.01228 47.6928 3.25574 52.9491 7.58215C59.711 13.1478 60.343 21.6693 54.4399 28.111C51.0423 31.8185 46.8377 34.2286 42.064 36.1703Z" fill="#040404"/>
<path d="M102.064 36.1703C95.1793 38.6977 88.3368 39.8346 81.2526 38.3147C73.6028 36.6733 67.7749 30.3392 66.6851 22.5921C65.5285 14.3692 69.2645 6.82146 76.233 2.82696C82.1692 -0.575875 88.5836 -0.204972 94.9401 0.390685C101.573 1.01228 107.693 3.25574 112.949 7.58215C119.711 13.1478 120.343 21.6693 114.44 28.111C111.042 31.8185 106.838 34.2286 102.064 36.1703Z" fill="#040404"/>
<path d="M48.918 85.7161C43.6211 90.7886 37.8061 94.5698 30.7059 96.0132C23.0389 97.5719 15.1624 94.1008 11.0622 87.438C6.71016 80.366 7.11188 71.9538 11.8982 65.5035C15.9756 60.0086 22.0019 57.7804 28.0652 55.7814C34.3924 53.6953 40.8983 53.3011 47.4471 55.1612C55.8717 57.5541 59.8626 65.1099 57.0322 73.3761C55.4031 78.1338 52.5151 82.0257 48.918 85.7161Z" fill="#040404"/>
<path d="M111.287 79.5977C108.001 86.1543 103.794 91.6687 97.5904 95.4125C90.892 99.4553 82.3073 98.8307 76.2078 93.9316C69.7337 88.7317 67.2872 80.6731 69.6296 72.9901C71.625 66.4451 76.5532 62.3226 81.5932 58.4036C86.8524 54.314 92.8482 51.758 99.6413 51.311C108.38 50.7359 114.677 56.5128 114.786 65.2495C114.85 70.2779 113.436 74.9136 111.287 79.5977Z" fill="#040404"/>
<path d="M164.421 126.885C166.464 133.929 167.123 140.834 165.115 147.795C162.946 155.313 156.222 160.687 148.418 161.236C140.135 161.819 132.865 157.568 129.364 150.339C126.382 144.18 127.197 137.807 128.233 131.507C129.313 124.934 131.976 118.985 136.657 114.041C142.679 107.682 151.224 107.643 157.24 113.98C160.703 117.626 162.815 121.988 164.421 126.885Z" fill="#040404"/>
<path d="M155.933 2.11538C164.331 6.81427 167.931 14.8756 165.942 24.2204C164.28 32.0219 156.931 38.1945 148.422 38.9332C140.198 39.6473 132.14 34.5741 128.868 26.6218C125.871 19.3404 127.814 10.8374 133.768 5.16924C139.565 -0.349411 148.192 -1.5829 155.933 2.11538Z" fill="#FFD000"/>
</svg>
