<svg width="304" height="304" viewBox="0 0 304 304" fill="none" xmlns="http://www.w3.org/2000/svg">
<path d="M71.6649 295.78C50.7667 308.112 18.0149 303.629 5.11368 275.023C-6.83626 248.526 9.84339 214.659 38.1633 207.684C64.4434 201.212 89.0128 214.238 95.7084 238.194C101.856 260.188 92.8584 281.98 71.6649 295.78Z" fill="#030303"/>
<path d="M163.307 206.343C180.64 206.388 192.7 215.611 197.365 232.044C204.331 256.581 193.348 283.847 171.369 296.583C148.125 310.052 120.846 297.036 116.306 270.31C112.033 245.154 128.561 217.021 152.676 208.647C155.945 207.512 159.466 207.103 163.307 206.343Z" fill="#030303"/>
<path d="M298.513 127.557C303.317 140.634 305.478 153.631 302.589 167.087C299.469 181.617 287.428 192.687 272.702 194.757C257.071 196.953 242.724 189.857 235.131 176.621C228.662 165.345 229.367 153.162 230.499 141.088C231.681 128.489 235.946 116.865 244.17 106.881C254.749 94.0372 270.948 92.8368 283.193 104.049C290.24 110.503 294.822 118.489 298.513 127.557Z" fill="#030303"/>
<path d="M113.117 158.707C112.253 147.399 115.573 137.76 122.554 129.665C133.65 116.798 147.04 107.443 164.014 103.615C183.044 99.3241 203.912 110.95 199.807 136.825C196.356 158.58 185.371 175.884 166.332 186.902C143.663 200.021 115.658 185.008 113.117 158.707Z" fill="#040404"/>
<path d="M137.811 73.4312C123.812 69.5568 114.205 61.5268 110.007 47.6872C103.841 27.3622 117.011 5.01305 138.11 1.6432C158.962 -1.68715 178.552 2.56538 195.516 15.6437C211.33 27.8362 211.646 46.9009 196.141 59.4173C181.041 71.6065 163.166 75.1964 144.164 74.2562C142.175 74.1578 140.201 73.7657 137.811 73.4312Z" fill="#030303"/>
<path d="M290.252 293.253C270.9 311.198 242.631 303.966 233.281 278.312C225.348 256.544 228.513 235.563 242.222 216.848C253.365 201.636 272.327 200.865 286.19 213.601C301.676 227.828 310.503 264.797 296.309 285.548C294.535 288.141 292.448 290.521 290.252 293.253Z" fill="#040404"/>
<path d="M90.8885 18.1396C100.927 29.7877 101.621 43.8993 92.9303 54.8433C76.6612 75.3316 37.3056 81.0348 15.9546 65.9982C-6.38845 50.2631 -4.60189 20.293 19.4751 6.93962C40.7952 -4.88471 72.7285 0.0271263 90.8885 18.1396Z" fill="#040404"/>
<path d="M16.7471 180.34C2.1775 169.86 -1.63193 154.502 5.9709 138.305C14.0977 120.991 29.0598 112.759 46.5099 108.18C57.871 105.198 69.283 105.565 80.1165 110.686C93.9726 117.234 100.386 132.397 94.8474 146.618C85.2749 171.195 60.493 188.758 34.5115 185.814C28.5705 185.141 22.8693 182.351 16.7471 180.34Z" fill="#030303"/>
<path d="M283.192 4.70285C299.122 13.6173 305.951 28.9106 302.177 46.639C299.026 61.4395 285.085 73.1497 268.946 74.5512C253.345 75.9059 238.06 66.2813 231.853 51.1948C226.17 37.3809 229.854 21.2498 241.149 10.4964C252.145 0.0268183 268.509 -2.31327 283.192 4.70285Z" fill="#040404"/>
</svg>
