<svg width="121" height="121" viewBox="0 0 121 121" fill="none" xmlns="http://www.w3.org/2000/svg">
<path fill-rule="evenodd" clip-rule="evenodd" d="M54.4235 4.04041L48.3076 18.0555C42.8648 30.528 33.0682 40.456 20.8484 45.8831L4.01413 53.3595C-1.33804 55.7365 -1.33804 63.5267 4.01413 65.9036L20.3226 73.1466C32.8568 78.7133 42.829 89.0093 48.1788 101.907L54.374 116.843C56.673 122.386 64.3271 122.386 66.626 116.843L72.8212 101.907C78.171 89.0093 88.1433 78.7133 100.678 73.1466L116.986 65.9036C122.338 63.5267 122.338 55.7365 116.986 53.3595L100.152 45.8831C87.9318 40.456 78.1352 30.528 72.6925 18.0555L66.5765 4.04041C64.2256 -1.34681 56.7745 -1.34681 54.4235 4.04041ZM77.9087 69.8218C79.6848 63.1987 78.9674 56.672 76.9536 50.0363C75.3805 45.4259 73.3413 41.3303 70.0498 37.9333C64.331 32.0312 56.3409 32.2052 50.8028 38.3225C46.4978 43.0777 44.0946 48.7527 43.1802 54.994C42.304 60.9749 41.6348 67.0218 44.5139 72.8042C47.8937 79.5919 54.7545 83.4999 62.4921 82.8149C69.7821 82.1696 75.9909 76.9736 77.9087 69.8218Z" fill="black"/>
</svg>
